<svg width="18" height="18" viewBox="0 0 18 18" fill="none" xmlns="http://www.w3.org/2000/svg">
<path d="M14.97 11.849C14.9043 11.849 13.4314 11.5865 13.4314 7.29167C13.4314 4.25833 11.6668 2.36979 8.75016 2.36979C5.8335 2.36979 4.06891 4.25833 4.06891 7.29167C4.06891 11.6667 2.54495 11.849 2.55225 11.849C2.40721 11.849 2.26811 11.9066 2.16555 12.0091C2.06299 12.1117 2.00537 12.2508 2.00537 12.3958C2.00537 12.5409 2.06299 12.68 2.16555 12.7825C2.26811 12.8851 2.40721 12.9427 2.55225 12.9427H6.07412C6.19585 13.563 6.52929 14.1218 7.01741 14.5234C7.50554 14.925 8.11803 15.1446 8.75016 15.1446C9.38229 15.1446 9.99479 14.925 10.4829 14.5234C10.971 14.1218 11.3045 13.563 11.4262 12.9427H14.9554C15.1004 12.9427 15.2395 12.8851 15.3421 12.7825C15.4446 12.68 15.5022 12.5409 15.5022 12.3958C15.5022 12.2508 15.4446 12.1117 15.3421 12.0091C15.2395 11.9066 15.1004 11.849 14.9554 11.849H14.97ZM8.75016 14.0365C8.41205 14.0358 8.08246 13.9303 7.80688 13.7344C7.53131 13.5384 7.32332 13.2618 7.21162 12.9427H10.2887C10.177 13.2618 9.96902 13.5384 9.69344 13.7344C9.41786 13.9303 9.08828 14.0358 8.75016 14.0365ZM4.20016 11.849C4.72516 11.0542 5.16266 9.66146 5.16266 7.29167C5.16266 4.92188 6.47516 3.46354 8.75016 3.46354C11.0252 3.46354 12.3377 4.85625 12.3377 7.29167C12.3377 9.72708 12.7752 11.0542 13.3002 11.849H4.20016Z" fill="#9E9E9E"/>
</svg>
