<svg width="20" height="20" viewBox="0 0 20 20" fill="none" xmlns="http://www.w3.org/2000/svg">
<path d="M11.6685 3.74998C11.9814 3.4722 12.2486 3.33331 12.5568 3.33331C13.1386 3.33331 13.5748 3.82839 14.4473 4.81855L16.5929 7.25371C17.7531 8.57056 18.3333 9.2289 18.3333 9.99998C18.3333 10.7711 17.7531 11.4294 16.5929 12.7462L14.4473 15.1814C13.5748 16.1716 13.1386 16.6666 12.5568 16.6666C12.2486 16.6666 11.9814 16.5277 11.6685 16.25" stroke="#156004" stroke-width="1.5" stroke-linecap="round"/>
<path d="M5.59079 4.81855C6.47181 3.82839 6.91233 3.33331 7.49984 3.33331C8.08735 3.33331 8.52784 3.82839 9.40892 4.81855L11.5757 7.25371C12.7473 8.57056 13.3332 9.2289 13.3332 9.99998C13.3332 10.7711 12.7473 11.4294 11.5757 12.7462L9.40892 15.1814C8.52784 16.1716 8.08735 16.6666 7.49984 16.6666C6.91233 16.6666 6.47181 16.1716 5.59079 15.1814L3.42402 12.7462C2.25235 11.4294 1.6665 10.7711 1.6665 9.99998C1.6665 9.2289 2.25235 8.57056 3.42402 7.25371L5.59079 4.81855Z" stroke="#156004" stroke-width="1.5"/>
</svg>