<svg width="14" height="14" viewBox="0 0 14 14" fill="none" xmlns="http://www.w3.org/2000/svg">
<g clip-path="url(#clip0_263_144)">
<path d="M10.4649 10.465C9.46776 11.2251 8.25356 11.6461 6.99992 11.6666C2.91659 11.6666 0.583252 6.99998 0.583252 6.99998C1.30885 5.64775 2.31525 4.46633 3.53492 3.53498M5.77492 2.47331C6.17645 2.37933 6.58754 2.33234 6.99992 2.33331C11.0833 2.33331 13.4166 6.99998 13.4166 6.99998C13.0625 7.66242 12.6402 8.28607 12.1566 8.86081M8.23658 8.23665C8.07637 8.40858 7.88317 8.54649 7.66851 8.64213C7.45384 8.73778 7.22211 8.78921 6.98714 8.79336C6.75216 8.79751 6.51876 8.75428 6.30086 8.66627C6.08295 8.57825 5.88501 8.44725 5.71883 8.28107C5.55265 8.11489 5.42165 7.91695 5.33363 7.69904C5.24562 7.48113 5.20239 7.24773 5.20654 7.01276C5.21068 6.77779 5.26212 6.54606 5.35776 6.33139C5.45341 6.11673 5.59132 5.92352 5.76325 5.76331M0.583252 0.583313L13.4166 13.4166" stroke="#1E1E1E" stroke-linecap="round" stroke-linejoin="round"/>
</g>
<defs>
<clipPath id="clip0_263_144">
<rect width="14" height="14" fill="white"/>
</clipPath>
</defs>
</svg>