<svg width="54" height="54" viewBox="0 0 54 54" fill="none" xmlns="http://www.w3.org/2000/svg">
<path d="M29.25 5.625V6.75C29.25 13.114 29.25 16.2959 31.2271 18.273C33.2042 20.25 36.3861 20.25 42.75 20.25H43.875M45 23.978V31.5C45 39.9852 45 44.228 42.3639 46.8639C39.728 49.5 35.4852 49.5 27 49.5C18.5147 49.5 14.2721 49.5 11.636 46.8639C9 44.228 9 39.9852 9 31.5V21.2756C9 13.9743 9 10.3237 10.9937 7.85099C11.3964 7.35145 11.8514 6.89643 12.351 6.49366C14.8237 4.5 18.4743 4.5 25.7756 4.5C27.3632 4.5 28.1567 4.5 28.8837 4.75652C29.0349 4.80987 29.183 4.87125 29.3276 4.94044C30.0231 5.27299 30.5842 5.83425 31.7068 6.95673L42.3639 17.614C43.6646 18.9146 44.3149 19.5649 44.6575 20.3919C45 21.2188 45 22.1385 45 23.978Z" stroke="#156004" stroke-width="1.5" stroke-linecap="round" stroke-linejoin="round"/>
</svg>
