<svg width="22" height="21" viewBox="0 0 22 21" fill="none" xmlns="http://www.w3.org/2000/svg">
<path d="M11.6424 1.05982L20.2376 7.84547C20.5612 8.10095 20.75 8.4905 20.75 8.9028C20.75 9.6469 20.1469 10.25 19.4028 10.25H18.75V13.75C18.75 16.5784 18.75 17.9926 17.8713 18.8713C16.9926 19.75 15.5784 19.75 12.75 19.75H8.75C5.92157 19.75 4.50736 19.75 3.62868 18.8713C2.75 17.9926 2.75 16.5784 2.75 13.75V10.25H2.09716C1.35315 10.25 0.75 9.6469 0.75 8.9028C0.75 8.4905 0.9388 8.10095 1.2624 7.84547L9.8576 1.05982C10.1117 0.85915 10.4261 0.75 10.75 0.75C11.0739 0.75 11.3883 0.85915 11.6424 1.05982Z" stroke="#156004" stroke-width="1.5" stroke-linecap="round" stroke-linejoin="round"/>
</svg>
