<svg width="24" height="24" viewBox="0 0 24 24" fill="none" xmlns="http://www.w3.org/2000/svg">
<path d="M7 3C6.07003 3 5.60504 3 5.22354 3.10222C4.18827 3.37962 3.37963 4.18827 3.10222 5.22354C3 5.60504 3 6.07003 3 7L3 17C3 17.93 3 18.395 3.10222 18.7765C3.37962 19.8117 4.18827 20.6204 5.22354 20.8978C5.60504 21 6.07003 21 7 21" stroke="#141B34" stroke-width="1.5" stroke-linecap="round" stroke-linejoin="round"/>
<path d="M16.5001 16.5C16.5001 16.5 21 13.1858 21 12C21 10.8141 16.5 7.5 16.5 7.5M20 12L8 12" stroke="#141B34" stroke-width="1.5" stroke-linecap="round" stroke-linejoin="round"/>
</svg>
