<svg width="21" height="21" viewBox="0 0 21 21" fill="none" xmlns="http://www.w3.org/2000/svg">
<path d="M9.42374 16.0125C8.12061 16.0125 6.84675 15.626 5.76323 14.9021C4.67972 14.1781 3.83522 13.1491 3.33653 11.9451C2.83785 10.7412 2.70737 9.4164 2.9616 8.13831C3.21582 6.86022 3.84334 5.68622 4.76479 4.76476C5.68625 3.84331 6.86025 3.21579 8.13834 2.96156C9.41644 2.70734 10.7412 2.83782 11.9452 3.3365C13.1491 3.83519 14.1781 4.67969 14.9021 5.7632C15.6261 6.84671 16.0125 8.12058 16.0125 9.42371C16.0125 10.289 15.8421 11.1457 15.511 11.9451C15.1798 12.7445 14.6945 13.4708 14.0827 14.0827C13.4709 14.6945 12.7445 15.1798 11.9452 15.5109C11.1458 15.842 10.289 16.0125 9.42374 16.0125ZM9.42374 4.15621C8.38539 4.15621 7.37036 4.46412 6.507 5.041C5.64364 5.61788 4.97074 6.43781 4.57338 7.39713C4.17602 8.35644 4.07205 9.41204 4.27462 10.4304C4.47719 11.4488 4.97721 12.3843 5.71143 13.1185C6.44566 13.8527 7.38112 14.3528 8.39952 14.5553C9.41792 14.7579 10.4735 14.6539 11.4328 14.2566C12.3921 13.8592 13.2121 13.1863 13.789 12.323C14.3658 11.4596 14.6737 10.4446 14.6737 9.40621C14.6737 8.01383 14.1206 6.67847 13.1361 5.6939C12.1515 4.70934 10.8161 4.15621 9.42374 4.15621Z" fill="#BDBDBD"/>
<path d="M17.5 18.1562C17.4138 18.1566 17.3283 18.1398 17.2487 18.1068C17.1691 18.0737 17.0968 18.0251 17.0362 17.9637L13.4225 14.35C13.3066 14.2256 13.2435 14.061 13.2465 13.891C13.2495 13.721 13.3183 13.5588 13.4386 13.4385C13.5588 13.3183 13.721 13.2494 13.891 13.2464C14.0611 13.2434 14.2256 13.3065 14.35 13.4225L17.9637 17.0362C18.0866 17.1593 18.1557 17.3261 18.1557 17.5C18.1557 17.6739 18.0866 17.8407 17.9637 17.9637C17.9032 18.0251 17.8309 18.0737 17.7513 18.1068C17.6717 18.1398 17.5862 18.1566 17.5 18.1562Z" fill="#BDBDBD"/>
</svg>
