<svg width="18" height="18" viewBox="0 0 18 18" fill="none" xmlns="http://www.w3.org/2000/svg">
<path d="M8.75 2.37012C8.9625 2.37205 9.17257 2.41594 9.36816 2.49902C9.56376 2.58214 9.74171 2.70287 9.89062 2.85449C10.0394 3.00608 10.1568 3.18585 10.2363 3.38281C10.3158 3.57982 10.3554 3.7905 10.3535 4.00293C10.3563 4.06965 10.3772 4.13507 10.4131 4.19141C10.4489 4.24748 10.4986 4.29353 10.5576 4.32422C10.6218 4.34779 10.6919 4.35292 10.7588 4.33887C10.8258 4.32469 10.8882 4.29177 10.9375 4.24414C11.2402 3.94369 11.6487 3.77294 12.0752 3.76953C12.2883 3.76291 12.5002 3.80096 12.6982 3.87988C12.8965 3.95892 13.0764 4.07788 13.2266 4.22949C13.3768 4.37973 13.4968 4.55761 13.5781 4.75391C13.6595 4.95033 13.7012 5.16141 13.7012 5.37402C13.7012 5.58647 13.6594 5.79687 13.5781 5.99316C13.4967 6.18959 13.3769 6.36823 13.2266 6.51855C13.1804 6.57316 13.1488 6.63886 13.1348 6.70898C13.1208 6.77909 13.1249 6.85178 13.1465 6.91992C13.1814 6.9837 13.2319 7.03769 13.293 7.07715C13.3541 7.11662 13.4245 7.1399 13.4971 7.14551C13.9234 7.15105 14.3315 7.32135 14.6357 7.62012C14.9399 7.91896 15.1168 8.32379 15.1299 8.75C15.128 8.96254 15.0841 9.17252 15.001 9.36816C14.9179 9.56383 14.7972 9.74166 14.6455 9.89062C14.4939 10.0395 14.3142 10.1568 14.1172 10.2363C13.9202 10.3159 13.7095 10.3564 13.4971 10.3545C13.4304 10.3573 13.3649 10.3772 13.3086 10.4131C13.2523 10.4489 13.2065 10.4994 13.1758 10.5586C13.1522 10.6229 13.147 10.6928 13.1611 10.7598C13.1753 10.8267 13.2083 10.8883 13.2559 10.9375C13.5563 11.2402 13.7261 11.6487 13.7295 12.0752C13.7332 12.288 13.6951 12.4995 13.6162 12.6973C13.5373 12.8951 13.4197 13.0756 13.2705 13.2275C13.1202 13.3778 12.9414 13.4968 12.7451 13.5781C12.5488 13.6594 12.3385 13.7011 12.126 13.7012C11.9134 13.7012 11.7023 13.6595 11.5059 13.5781C11.3097 13.4968 11.1316 13.3776 10.9814 13.2275C10.9322 13.1799 10.8698 13.147 10.8027 13.1328C10.7357 13.1187 10.6659 13.1229 10.6016 13.1465C10.54 13.182 10.4889 13.2336 10.4531 13.2949C10.4174 13.3563 10.3981 13.4261 10.3975 13.4971C10.392 13.9234 10.2226 14.3315 9.92383 14.6357C9.62506 14.9399 9.22011 15.1167 8.79395 15.1299C8.58078 15.1289 8.36933 15.0866 8.17285 15.0039C7.97636 14.9212 7.79816 14.8002 7.64844 14.6484C7.49874 14.4967 7.38081 14.3167 7.30078 14.1191C7.22077 13.9216 7.17974 13.7102 7.18164 13.4971C7.17876 13.4313 7.15752 13.3676 7.12012 13.3135C7.08272 13.2593 7.03117 13.2164 6.9707 13.1904C6.90391 13.1598 6.8294 13.1496 6.75684 13.1611C6.68429 13.1728 6.61637 13.2059 6.5625 13.2559C6.25977 13.5563 5.8513 13.7271 5.4248 13.7305C4.99561 13.7332 4.58201 13.5678 4.27246 13.2705C4.12235 13.1204 4.0032 12.9422 3.92188 12.7461C3.8405 12.5497 3.79883 12.3386 3.79883 12.126C3.79884 11.9135 3.84057 11.7032 3.92188 11.5068C4.00322 11.3105 4.1222 11.1317 4.27246 10.9814C4.32386 10.9346 4.36081 10.8738 4.37891 10.8066C4.39695 10.7396 4.3958 10.6688 4.375 10.6025C4.33947 10.541 4.28795 10.4889 4.22656 10.4531C4.16528 10.4175 4.09532 10.3981 4.02441 10.3975C3.59556 10.3957 3.18428 10.2278 2.87695 9.92871C2.56958 9.6295 2.39023 9.2227 2.37695 8.79395C2.37791 8.58137 2.4207 8.37083 2.50293 8.1748C2.58516 7.97879 2.70547 7.80099 2.85645 7.65137C3.0074 7.50179 3.18612 7.38318 3.38281 7.30273C3.57958 7.22227 3.79035 7.18166 4.00293 7.18262C4.06862 7.17974 4.13239 7.15842 4.18652 7.12109C4.24069 7.08369 4.28358 7.03118 4.30957 6.9707C4.34018 6.90388 4.34954 6.82941 4.33789 6.75684C4.32621 6.68414 4.2933 6.61642 4.24316 6.5625C3.94283 6.25978 3.77294 5.85123 3.76953 5.4248C3.76583 5.21196 3.80494 5.00047 3.88379 4.80273C3.96266 4.605 4.07935 4.42435 4.22852 4.27246C4.37878 4.12216 4.55757 4.00325 4.75391 3.92188C4.95033 3.8405 5.16141 3.79883 5.37402 3.79883C5.58649 3.79887 5.79687 3.84057 5.99316 3.92188C6.1895 4.00322 6.36828 4.1222 6.51855 4.27246C6.57106 4.32241 6.63583 4.3581 6.70605 4.37598C6.77621 4.39379 6.85001 4.39375 6.91992 4.375C6.98361 4.34006 7.03774 4.28954 7.07715 4.22852C7.11647 4.16756 7.13985 4.09771 7.14551 4.02539C7.1453 3.5951 7.31285 3.18106 7.6123 2.87207C7.91175 2.56318 8.31999 2.38338 8.75 2.37012ZM8.75684 3.45605C8.6158 3.46547 8.4838 3.52924 8.38867 3.63379C8.29352 3.73846 8.24302 3.87618 8.24707 4.01758C8.23931 4.30301 8.15134 4.58097 7.99414 4.81934C7.83705 5.05745 7.61644 5.24669 7.35742 5.36621C7.08858 5.47529 6.79353 5.50382 6.50879 5.44824C6.22393 5.39256 5.96101 5.2551 5.75293 5.05273C5.70516 5.00501 5.6483 4.96728 5.58594 4.94141C5.52349 4.91554 5.45626 4.90239 5.38867 4.90234C5.32108 4.90234 5.25387 4.91559 5.19141 4.94141C5.12887 4.96731 5.0713 5.00488 5.02344 5.05273C4.97556 5.10061 4.93802 5.15815 4.91211 5.2207C4.88625 5.2832 4.87305 5.35033 4.87305 5.41797C4.87308 5.48559 4.88623 5.55276 4.91211 5.61523C4.93799 5.67762 4.9757 5.73445 5.02344 5.78223C5.22457 5.98811 5.36086 6.24936 5.41406 6.53223C5.46715 6.81496 5.4348 7.10732 5.32227 7.37207C5.21375 7.63223 5.03249 7.85554 4.7998 8.01465C4.56684 8.17384 4.29185 8.26206 4.00977 8.26855C3.86944 8.26665 3.73384 8.31964 3.63184 8.41602C3.52976 8.51265 3.46865 8.6457 3.46289 8.78613C3.47398 8.92646 3.53854 9.05755 3.64258 9.15234C3.7468 9.24709 3.88359 9.29908 4.02441 9.29688C4.30741 9.29861 4.58462 9.38008 4.82324 9.53223C5.06191 9.68446 5.2531 9.90127 5.37402 10.1572C5.48477 10.4235 5.51381 10.7171 5.45801 11C5.40216 11.2828 5.26399 11.5429 5.06055 11.7471C5.01267 11.7949 4.97415 11.8515 4.94824 11.9141C4.92235 11.9766 4.9092 12.0437 4.90918 12.1113C4.90918 12.179 4.92239 12.2461 4.94824 12.3086C4.97415 12.3711 5.01269 12.4277 5.06055 12.4756C5.10842 12.5235 5.16498 12.562 5.22754 12.5879C5.29007 12.6138 5.35713 12.627 5.4248 12.627C5.49249 12.6269 5.55954 12.6138 5.62207 12.5879C5.68463 12.562 5.74118 12.5235 5.78906 12.4756C6.06618 12.211 6.43428 12.0629 6.81738 12.0605C7.01073 12.0583 7.20246 12.0977 7.37891 12.1768C7.63922 12.2853 7.86231 12.4674 8.02148 12.7002C8.18061 12.9331 8.26883 13.2073 8.27539 13.4893C8.27337 13.6299 8.32712 13.766 8.42383 13.8682C8.52052 13.9702 8.65345 14.0304 8.79395 14.0361C8.93431 14.0249 9.06543 13.9606 9.16016 13.8564C9.2548 13.7522 9.306 13.6154 9.30371 13.4746C9.30551 13.1917 9.38789 12.9153 9.54004 12.6768C9.69223 12.4382 9.9082 12.2469 10.1641 12.126C10.4303 12.0152 10.7239 11.9862 11.0068 12.042C11.2897 12.0978 11.5497 12.236 11.7539 12.4395C11.8505 12.5361 11.9815 12.5907 12.1182 12.5908C12.2549 12.5908 12.3867 12.5361 12.4834 12.4395C12.5799 12.3428 12.6337 12.2118 12.6338 12.0752C12.6338 11.9384 12.5801 11.8067 12.4834 11.71C12.2811 11.5049 12.1434 11.2448 12.0889 10.9619C12.0344 10.6792 12.0652 10.3866 12.1768 10.1211C12.2918 9.86523 12.4785 9.64773 12.7139 9.49512C12.9492 9.34258 13.2235 9.26133 13.5039 9.26074C13.6426 9.26276 13.7771 9.21057 13.8779 9.11523C13.9787 9.0199 14.0383 8.88859 14.0439 8.75C14.0346 8.60881 13.9699 8.47702 13.8652 8.38184C13.7606 8.28682 13.6237 8.23528 13.4824 8.23926C13.197 8.2315 12.919 8.14449 12.6807 7.9873C12.4423 7.83011 12.2524 7.60891 12.1328 7.34961C12.0238 7.08077 11.9951 6.78569 12.0508 6.50098C12.1065 6.21633 12.2441 5.95407 12.4463 5.74609C12.4942 5.69822 12.5327 5.64068 12.5586 5.57812C12.5844 5.51569 12.5977 5.44841 12.5977 5.38086C12.5976 5.31328 12.5845 5.24603 12.5586 5.18359C12.5327 5.12113 12.4941 5.06442 12.4463 5.0166C12.3985 4.96884 12.3417 4.93115 12.2793 4.90527C12.2167 4.87936 12.1497 4.86523 12.082 4.86523C12.0143 4.86524 11.9473 4.87937 11.8848 4.90527C11.8223 4.93115 11.7656 4.96884 11.7178 5.0166C11.5128 5.20701 11.2569 5.33457 10.9814 5.38379C10.7061 5.43297 10.4223 5.40154 10.1641 5.29395C9.90587 5.18633 9.68434 5.00654 9.52539 4.77637C9.36651 4.54624 9.27678 4.27559 9.26758 3.99609C9.2696 3.85737 9.21741 3.72286 9.12207 3.62207C9.02674 3.52132 8.89543 3.46174 8.75684 3.45605ZM8.33301 6.6543C8.74742 6.57188 9.17701 6.61467 9.56738 6.77637C9.95775 6.93807 10.2916 7.21215 10.5264 7.56348C10.761 7.91473 10.8867 8.3276 10.8867 8.75C10.8867 9.31658 10.6613 9.86009 10.2607 10.2607C9.86012 10.6614 9.31656 10.8867 8.75 10.8867C8.32745 10.8867 7.91384 10.7611 7.5625 10.5264C7.21129 10.2916 6.93803 9.95767 6.77637 9.56738C6.61468 9.17701 6.57186 8.74742 6.6543 8.33301C6.73675 7.91864 6.94051 7.53801 7.23926 7.23926C7.53803 6.94052 7.91862 6.73672 8.33301 6.6543ZM8.75 7.70703C8.54392 7.70703 8.34229 7.7684 8.1709 7.88281C7.99949 7.99734 7.86506 8.16015 7.78613 8.35059C7.70724 8.54105 7.68736 8.75093 7.72754 8.95312C7.76777 9.15539 7.86687 9.34148 8.0127 9.4873C8.15851 9.63308 8.34465 9.73224 8.54688 9.77246C8.74894 9.81257 8.95809 9.79169 9.14844 9.71289C9.33897 9.63397 9.50261 9.50057 9.61719 9.3291C9.73162 9.1577 9.79297 8.9561 9.79297 8.75C9.79297 8.4735 9.68279 8.20823 9.4873 8.0127C9.2918 7.81719 9.02647 7.70708 8.75 7.70703Z" fill="#9E9E9E"/>
</svg>
